# MagicaVoxel @ Ephtracy

# group
o 

# material
mtllib Kweeny.mtl
usemtl palette

# normals
vn -1 0 0
vn 1 0 0
vn 0 0 1
vn 0 0 -1
vn 0 -1 0
vn 0 1 0

# texcoords
vt 0.310547 0.5
vt 0.333984 0.5
vt 0.373047 0.5
vt 0.404297 0.5
vt 0.427734 0.5
vt 0.947266 0.5
vt 0.986328 0.5
vt 0.994141 0.5

# verts
v -0.4 0.6 0.2
v -0.4 0.6 -0.2
v -0.4 0.7 0.2
v -0.4 0.7 0.1
v -0.4 0.8 0.2
v -0.4 0.8 0.1
v -0.4 0.8 0
v -0.4 0.8 -0.1
v -0.4 0.9 0.1
v -0.4 0.9 0
v -0.4 1 0.2
v -0.4 1 -0.1
v -0.4 1.1 0.2
v -0.4 1.1 0.1
v -0.4 1.1 -0.1
v -0.4 1.1 -0.2
v -0.4 1.3 0.1
v -0.4 1.3 -0.1
v -0.3 0.3 0.1
v -0.3 0.3 -0.1
v -0.3 0.6 0.1
v -0.3 0.6 -0.1
v -0.3 1.3 0.1
v -0.3 1.3 -0.1
v -0.3 1.4 0.1
v -0.3 1.4 -0.1
v -0.2 0 0.1
v -0.2 0 -0.1
v -0.2 0.1 0.1
v -0.2 0.1 -0.1
v -0.2 0.3 0.1
v -0.2 0.3 -0.1
v 0.1 0 0.1
v 0.1 0 -0.1
v 0.1 0.1 0.1
v 0.1 0.1 -0.1
v 0.1 0.2 0.1
v 0.1 0.2 -0.1
v 0.1 1.1 0.1
v 0.1 1.1 -0.1
v 0.1 1.3 0.1
v 0.1 1.3 -0.1
v 0.2 1.3 0.1
v 0.2 1.3 -0.1
v 0.2 1.4 0.1
v 0.2 1.4 -0.1
v -0.2 1.3 0.1
v -0.2 1.3 -0.1
v -0.2 1.4 0.1
v -0.2 1.4 -0.1
v -0.1 0 0.1
v -0.1 0 -0.1
v -0.1 0.1 0.1
v -0.1 0.1 -0.1
v -0.1 0.2 0.1
v -0.1 0.2 -0.1
v -0.1 1.1 0.1
v -0.1 1.1 -0.1
v -0.1 1.3 0.1
v -0.1 1.3 -0.1
v 0.2 0 0.1
v 0.2 0 -0.1
v 0.2 0.1 0.1
v 0.2 0.1 -0.1
v 0.2 0.3 0.1
v 0.2 0.3 -0.1
v 0.3 0.3 0.1
v 0.3 0.3 -0.1
v 0.3 0.6 0.1
v 0.3 0.6 -0.1
v 0.3 1.3 0.1
v 0.3 1.3 -0.1
v 0.3 1.4 0.1
v 0.3 1.4 -0.1
v 0.4 0.6 0.2
v 0.4 0.6 -0.2
v 0.4 0.7 0.2
v 0.4 0.7 0.1
v 0.4 0.8 0
v 0.4 0.8 -0.1
v 0.4 0.9 0.1
v 0.4 0.9 0
v 0.4 1 0.2
v 0.4 1 -0.1
v 0.4 1.1 0.2
v 0.4 1.1 0.1
v 0.4 1.1 -0.1
v 0.4 1.1 -0.2
v 0.4 1.3 0.1
v 0.4 1.3 -0.1
v -0.4 0.6 0.2
v -0.4 0.7 0.2
v -0.4 0.8 0.2
v -0.4 1 0.2
v -0.4 1.1 0.2
v -0.3 0.7 0.2
v -0.3 0.8 0.2
v -0.3 0.9 0.2
v -0.2 0.8 0.2
v -0.2 0.9 0.2
v -0.1 0.7 0.2
v -0.1 0.9 0.2
v 0.1 0.7 0.2
v 0.1 0.8 0.2
v 0.1 0.9 0.2
v 0.2 0.7 0.2
v 0.2 0.8 0.2
v 0.2 0.9 0.2
v 0.3 0.8 0.2
v 0.3 0.9 0.2
v 0.4 0.6 0.2
v 0.4 0.7 0.2
v 0.4 1 0.2
v 0.4 1.1 0.2
v -0.4 1.1 0.1
v -0.4 1.3 0.1
v -0.3 0.3 0.1
v -0.3 0.6 0.1
v -0.3 1.1 0.1
v -0.3 1.3 0.1
v -0.3 1.4 0.1
v -0.2 0 0.1
v -0.2 0.1 0.1
v -0.2 0.3 0.1
v -0.2 0.4 0.1
v -0.2 0.6 0.1
v -0.2 1.1 0.1
v -0.2 1.3 0.1
v -0.2 1.4 0.1
v -0.1 0 0.1
v -0.1 0.1 0.1
v -0.1 0.2 0.1
v -0.1 0.3 0.1
v -0.1 0.4 0.1
v -0.1 1.1 0.1
v -0.1 1.3 0.1
v 0 0.3 0.1
v 0 0.4 0.1
v 0.1 0 0.1
v 0.1 0.1 0.1
v 0.1 0.2 0.1
v 0.1 1.1 0.1
v 0.1 1.3 0.1
v 0.2 0 0.1
v 0.2 0.1 0.1
v 0.2 0.3 0.1
v 0.2 0.4 0.1
v 0.2 0.6 0.1
v 0.2 1.1 0.1
v 0.2 1.3 0.1
v 0.2 1.4 0.1
v 0.3 0.3 0.1
v 0.3 0.6 0.1
v 0.3 1.1 0.1
v 0.3 1.3 0.1
v 0.3 1.4 0.1
v 0.4 1.1 0.1
v 0.4 1.3 0.1
v -0.4 1.1 -0.1
v -0.4 1.3 -0.1
v -0.3 0.3 -0.1
v -0.3 0.6 -0.1
v -0.3 1.3 -0.1
v -0.3 1.4 -0.1
v -0.2 0 -0.1
v -0.2 0.1 -0.1
v -0.2 0.3 -0.1
v -0.2 0.4 -0.1
v -0.2 0.6 -0.1
v -0.2 1.3 -0.1
v -0.2 1.4 -0.1
v -0.1 0 -0.1
v -0.1 0.1 -0.1
v -0.1 0.2 -0.1
v -0.1 1.1 -0.1
v -0.1 1.3 -0.1
v 0.1 0 -0.1
v 0.1 0.1 -0.1
v 0.1 0.2 -0.1
v 0.1 1.1 -0.1
v 0.1 1.3 -0.1
v 0.2 0 -0.1
v 0.2 0.1 -0.1
v 0.2 0.3 -0.1
v 0.2 0.4 -0.1
v 0.2 0.6 -0.1
v 0.2 1.3 -0.1
v 0.2 1.4 -0.1
v 0.3 0.3 -0.1
v 0.3 0.6 -0.1
v 0.3 1.3 -0.1
v 0.3 1.4 -0.1
v 0.4 1.1 -0.1
v 0.4 1.3 -0.1
v -0.4 0.6 -0.2
v -0.4 1.1 -0.2
v -0.3 0.7 -0.2
v -0.3 0.8 -0.2
v -0.3 0.9 -0.2
v -0.3 1 -0.2
v 0.3 0.7 -0.2
v 0.3 0.8 -0.2
v 0.3 0.9 -0.2
v 0.3 1 -0.2
v 0.4 0.6 -0.2
v 0.4 1.1 -0.2
v -0.2 0 0.1
v -0.1 0 0.1
v 0.1 0 0.1
v 0.2 0 0.1
v -0.2 0 -0.1
v -0.1 0 -0.1
v 0.1 0 -0.1
v 0.2 0 -0.1
v -0.1 0.2 0.1
v 0.1 0.2 0.1
v -0.1 0.2 -0.1
v 0.1 0.2 -0.1
v -0.3 0.3 0.1
v -0.2 0.3 0.1
v 0.2 0.3 0.1
v 0.3 0.3 0.1
v -0.3 0.3 -0.1
v -0.2 0.3 -0.1
v 0.2 0.3 -0.1
v 0.3 0.3 -0.1
v -0.4 0.6 0.2
v 0.4 0.6 0.2
v -0.3 0.6 0.1
v -0.2 0.6 0.1
v 0.2 0.6 0.1
v 0.3 0.6 0.1
v -0.3 0.6 -0.1
v -0.2 0.6 -0.1
v 0.2 0.6 -0.1
v 0.3 0.6 -0.1
v -0.4 0.6 -0.2
v 0.4 0.6 -0.2
v -0.4 1.1 0.2
v 0.4 1.1 0.2
v -0.4 1.1 0.1
v -0.3 1.1 0.1
v -0.2 1.1 0.1
v -0.1 1.1 0.1
v 0.1 1.1 0.1
v 0.2 1.1 0.1
v 0.3 1.1 0.1
v 0.4 1.1 0.1
v -0.4 1.1 -0.1
v -0.1 1.1 -0.1
v 0.1 1.1 -0.1
v 0.4 1.1 -0.1
v -0.4 1.1 -0.2
v 0.4 1.1 -0.2
v -0.4 1.3 0.1
v -0.3 1.3 0.1
v -0.2 1.3 0.1
v -0.1 1.3 0.1
v 0.1 1.3 0.1
v 0.2 1.3 0.1
v 0.3 1.3 0.1
v 0.4 1.3 0.1
v -0.4 1.3 -0.1
v -0.3 1.3 -0.1
v -0.2 1.3 -0.1
v -0.1 1.3 -0.1
v 0.1 1.3 -0.1
v 0.2 1.3 -0.1
v 0.3 1.3 -0.1
v 0.4 1.3 -0.1
v -0.3 1.4 0.1
v -0.2 1.4 0.1
v 0.2 1.4 0.1
v 0.3 1.4 0.1
v -0.3 1.4 -0.1
v -0.2 1.4 -0.1
v 0.2 1.4 -0.1
v 0.3 1.4 -0.1

# faces
f 3/3/1 2/3/1 1/3/1
f 4/3/1 2/3/1 3/3/1
f 5/7/1 4/7/1 3/7/1
f 6/3/1 2/3/1 4/3/1
f 6/7/1 4/7/1 5/7/1
f 7/3/1 2/3/1 6/3/1
f 8/3/1 2/3/1 7/3/1
f 9/8/1 6/8/1 5/8/1
f 9/3/1 7/3/1 6/3/1
f 10/8/1 8/8/1 7/8/1
f 10/3/1 7/3/1 9/3/1
f 11/8/1 9/8/1 5/8/1
f 11/8/1 10/8/1 9/8/1
f 12/3/1 2/3/1 8/3/1
f 12/8/1 10/8/1 11/8/1
f 12/8/1 8/8/1 10/8/1
f 13/3/1 12/3/1 11/3/1
f 14/3/1 12/3/1 13/3/1
f 15/3/1 2/3/1 12/3/1
f 15/3/1 12/3/1 14/3/1
f 16/3/1 2/3/1 15/3/1
f 17/3/1 15/3/1 14/3/1
f 18/3/1 15/3/1 17/3/1
f 21/4/1 20/4/1 19/4/1
f 22/4/1 20/4/1 21/4/1
f 25/3/1 24/3/1 23/3/1
f 26/3/1 24/3/1 25/3/1
f 29/1/1 28/1/1 27/1/1
f 30/1/1 28/1/1 29/1/1
f 31/8/1 30/8/1 29/8/1
f 32/8/1 30/8/1 31/8/1
f 35/1/1 34/1/1 33/1/1
f 36/1/1 34/1/1 35/1/1
f 37/8/1 36/8/1 35/8/1
f 38/8/1 36/8/1 37/8/1
f 41/3/1 40/3/1 39/3/1
f 42/3/1 40/3/1 41/3/1
f 45/3/1 44/3/1 43/3/1
f 46/3/1 44/3/1 45/3/1
f 47/3/2 48/3/2 49/3/2
f 49/3/2 48/3/2 50/3/2
f 51/1/2 52/1/2 53/1/2
f 53/1/2 52/1/2 54/1/2
f 53/8/2 54/8/2 55/8/2
f 55/8/2 54/8/2 56/8/2
f 57/3/2 58/3/2 59/3/2
f 59/3/2 58/3/2 60/3/2
f 61/1/2 62/1/2 63/1/2
f 63/1/2 62/1/2 64/1/2
f 63/8/2 64/8/2 65/8/2
f 65/8/2 64/8/2 66/8/2
f 67/4/2 68/4/2 69/4/2
f 69/4/2 68/4/2 70/4/2
f 71/3/2 72/3/2 73/3/2
f 73/3/2 72/3/2 74/3/2
f 75/3/2 76/3/2 77/3/2
f 77/3/2 76/3/2 78/3/2
f 78/3/2 76/3/2 79/3/2
f 79/3/2 76/3/2 80/3/2
f 77/8/2 78/8/2 81/8/2
f 78/3/2 79/3/2 81/3/2
f 79/8/2 80/8/2 82/8/2
f 81/3/2 79/3/2 82/3/2
f 77/8/2 81/8/2 83/8/2
f 81/8/2 82/8/2 83/8/2
f 80/3/2 76/3/2 84/3/2
f 83/8/2 82/8/2 84/8/2
f 82/8/2 80/8/2 84/8/2
f 83/3/2 84/3/2 85/3/2
f 85/3/2 84/3/2 86/3/2
f 84/3/2 76/3/2 87/3/2
f 86/3/2 84/3/2 87/3/2
f 87/3/2 76/3/2 88/3/2
f 86/3/2 87/3/2 89/3/2
f 89/3/2 87/3/2 90/3/2
f 96/3/3 92/3/3 91/3/3
f 96/7/3 93/7/3 92/7/3
f 97/8/3 94/8/3 93/8/3
f 97/7/3 93/7/3 96/7/3
f 98/8/3 94/8/3 97/8/3
f 99/8/3 97/8/3 96/8/3
f 99/7/3 98/7/3 97/7/3
f 100/8/3 94/8/3 98/8/3
f 100/7/3 98/7/3 99/7/3
f 101/3/3 96/3/3 91/3/3
f 101/8/3 99/8/3 96/8/3
f 101/8/3 100/8/3 99/8/3
f 102/8/3 94/8/3 100/8/3
f 102/8/3 100/8/3 101/8/3
f 103/3/3 101/3/3 91/3/3
f 103/3/3 102/3/3 101/3/3
f 104/3/3 102/3/3 103/3/3
f 105/8/3 94/8/3 102/8/3
f 105/3/3 102/3/3 104/3/3
f 106/7/3 104/7/3 103/7/3
f 106/3/3 103/3/3 91/3/3
f 107/8/3 105/8/3 104/8/3
f 107/7/3 104/7/3 106/7/3
f 108/8/3 94/8/3 105/8/3
f 108/8/3 105/8/3 107/8/3
f 109/8/3 107/8/3 106/8/3
f 109/7/3 108/7/3 107/7/3
f 110/8/3 94/8/3 108/8/3
f 110/7/3 108/7/3 109/7/3
f 111/3/3 106/3/3 91/3/3
f 112/8/3 109/8/3 106/8/3
f 112/3/3 106/3/3 111/3/3
f 112/8/3 110/8/3 109/8/3
f 113/3/3 95/3/3 94/3/3
f 113/8/3 110/8/3 112/8/3
f 113/8/3 94/8/3 110/8/3
f 114/3/3 95/3/3 113/3/3
f 119/3/3 116/3/3 115/3/3
f 120/3/3 116/3/3 119/3/3
f 124/4/3 118/4/3 117/4/3
f 125/4/3 118/4/3 124/4/3
f 126/4/3 118/4/3 125/4/3
f 127/2/3 120/2/3 119/2/3
f 128/3/3 121/3/3 120/3/3
f 128/2/3 120/2/3 127/2/3
f 129/3/3 121/3/3 128/3/3
f 130/1/3 123/1/3 122/1/3
f 131/8/3 124/8/3 123/8/3
f 131/1/3 123/1/3 130/1/3
f 131/8/3 125/8/3 124/8/3
f 132/8/3 125/8/3 131/8/3
f 133/8/3 125/8/3 132/8/3
f 134/6/3 126/6/3 125/6/3
f 134/8/3 125/8/3 133/8/3
f 135/3/3 128/3/3 127/3/3
f 136/3/3 128/3/3 135/3/3
f 137/8/3 133/8/3 132/8/3
f 137/5/3 134/5/3 133/5/3
f 138/6/3 126/6/3 134/6/3
f 138/5/3 134/5/3 137/5/3
f 141/8/3 137/8/3 132/8/3
f 141/8/3 138/8/3 137/8/3
f 144/1/3 140/1/3 139/1/3
f 145/8/3 141/8/3 140/8/3
f 145/1/3 140/1/3 144/1/3
f 146/8/3 138/8/3 141/8/3
f 146/8/3 141/8/3 145/8/3
f 147/6/3 126/6/3 138/6/3
f 147/8/3 138/8/3 146/8/3
f 148/6/3 126/6/3 147/6/3
f 149/3/3 143/3/3 142/3/3
f 150/3/3 143/3/3 149/3/3
f 152/4/3 148/4/3 147/4/3
f 152/4/3 147/4/3 146/4/3
f 153/4/3 148/4/3 152/4/3
f 154/2/3 150/2/3 149/2/3
f 155/3/3 151/3/3 150/3/3
f 155/2/3 150/2/3 154/2/3
f 156/3/3 151/3/3 155/3/3
f 157/3/3 155/3/3 154/3/3
f 158/3/3 155/3/3 157/3/3
f 159/3/4 160/3/4 163/3/4
f 161/4/4 162/4/4 167/4/4
f 167/4/4 162/4/4 168/4/4
f 168/4/4 162/4/4 169/4/4
f 159/3/4 163/3/4 170/3/4
f 163/3/4 164/3/4 170/3/4
f 170/3/4 164/3/4 171/3/4
f 165/1/4 166/1/4 172/1/4
f 167/8/4 168/8/4 173/8/4
f 172/1/4 166/1/4 173/1/4
f 166/8/4 167/8/4 173/8/4
f 173/8/4 168/8/4 174/8/4
f 159/3/4 170/3/4 175/3/4
f 175/3/4 170/3/4 176/3/4
f 174/8/4 168/8/4 179/8/4
f 177/1/4 178/1/4 182/1/4
f 178/8/4 179/8/4 183/8/4
f 182/1/4 178/1/4 183/1/4
f 179/8/4 168/8/4 184/8/4
f 183/8/4 179/8/4 184/8/4
f 168/6/4 169/6/4 185/6/4
f 184/8/4 168/8/4 185/8/4
f 185/6/4 169/6/4 186/6/4
f 180/3/4 181/3/4 187/3/4
f 185/4/4 186/4/4 189/4/4
f 184/4/4 185/4/4 189/4/4
f 189/4/4 186/4/4 190/4/4
f 187/3/4 188/3/4 191/3/4
f 180/3/4 187/3/4 191/3/4
f 191/3/4 188/3/4 192/3/4
f 180/3/4 191/3/4 193/3/4
f 193/3/4 191/3/4 194/3/4
f 195/3/4 196/3/4 197/3/4
f 197/3/4 196/3/4 198/3/4
f 198/3/4 196/3/4 199/3/4
f 199/3/4 196/3/4 200/3/4
f 195/3/4 197/3/4 201/3/4
f 197/4/4 198/4/4 201/4/4
f 198/3/4 199/3/4 202/3/4
f 201/4/4 198/4/4 202/4/4
f 199/4/4 200/4/4 203/4/4
f 202/3/4 199/3/4 203/3/4
f 200/3/4 196/3/4 204/3/4
f 203/4/4 200/4/4 204/4/4
f 202/3/4 203/3/4 205/3/4
f 201/3/4 202/3/4 205/3/4
f 203/3/4 204/3/4 205/3/4
f 195/3/4 201/3/4 205/3/4
f 204/3/4 196/3/4 206/3/4
f 205/3/4 204/3/4 206/3/4
f 211/1/5 208/1/5 207/1/5
f 212/1/5 208/1/5 211/1/5
f 213/1/5 210/1/5 209/1/5
f 214/1/5 210/1/5 213/1/5
f 217/8/5 216/8/5 215/8/5
f 218/8/5 216/8/5 217/8/5
f 223/4/5 220/4/5 219/4/5
f 224/4/5 220/4/5 223/4/5
f 225/4/5 222/4/5 221/4/5
f 226/4/5 222/4/5 225/4/5
f 229/3/5 228/3/5 227/3/5
f 230/3/5 228/3/5 229/3/5
f 231/3/5 228/3/5 230/3/5
f 232/3/5 228/3/5 231/3/5
f 233/3/5 229/3/5 227/3/5
f 236/3/5 228/3/5 232/3/5
f 237/3/5 235/3/5 234/3/5
f 237/3/5 236/3/5 235/3/5
f 237/3/5 233/3/5 227/3/5
f 237/3/5 234/3/5 233/3/5
f 238/3/5 228/3/5 236/3/5
f 238/3/5 236/3/5 237/3/5
f 239/3/6 240/3/6 241/3/6
f 241/3/6 240/3/6 242/3/6
f 242/3/6 240/3/6 243/3/6
f 243/3/6 240/3/6 244/3/6
f 244/3/6 240/3/6 245/3/6
f 245/3/6 240/3/6 246/3/6
f 246/3/6 240/3/6 247/3/6
f 247/3/6 240/3/6 248/3/6
f 244/3/6 245/3/6 250/3/6
f 250/3/6 245/3/6 251/3/6
f 249/3/6 250/3/6 253/3/6
f 251/3/6 252/3/6 253/3/6
f 250/3/6 251/3/6 253/3/6
f 253/3/6 252/3/6 254/3/6
f 255/3/6 256/3/6 263/3/6
f 263/3/6 256/3/6 264/3/6
f 257/3/6 258/3/6 265/3/6
f 265/3/6 258/3/6 266/3/6
f 259/3/6 260/3/6 267/3/6
f 267/3/6 260/3/6 268/3/6
f 261/3/6 262/3/6 269/3/6
f 269/3/6 262/3/6 270/3/6
f 271/3/6 272/3/6 275/3/6
f 275/3/6 272/3/6 276/3/6
f 273/3/6 274/3/6 277/3/6
f 277/3/6 274/3/6 278/3/6
