# MagicaVoxel @ Ephtracy

# group
o 

# material
mtllib NormalCar.mtl
usemtl palette

# normals
vn -1 0 0
vn 1 0 0
vn 0 0 1
vn 0 0 -1
vn 0 -1 0
vn 0 1 0

# texcoords
vt 0.478516 0.5
vt 0.583984 0.5
vt 0.587891 0.5
vt 0.689453 0.5
vt 0.748047 0.5
vt 0.791016 0.5
vt 0.982422 0.5
vt 0.990234 0.5
vt 0.994141 0.5

# verts
v -0.5 0.3 0.4
v -0.5 0.3 0.3
v -0.5 0.4 0.4
v -0.5 0.4 0.3
v -0.4 0 0.4
v -0.4 0 0.2
v -0.4 0 -0.3
v -0.4 0 -0.5
v -0.4 0.1 0.6
v -0.4 0.1 0.4
v -0.4 0.1 0.2
v -0.4 0.1 -0.3
v -0.4 0.1 -0.5
v -0.4 0.1 -0.6
v -0.4 0.1 -0.7
v -0.4 0.2 0.6
v -0.4 0.2 0.4
v -0.4 0.2 0.2
v -0.4 0.2 -0.3
v -0.4 0.2 -0.5
v -0.4 0.2 -0.6
v -0.4 0.2 -0.7
v -0.4 0.3 0.4
v -0.4 0.3 0.3
v -0.4 0.3 0
v -0.4 0.3 -0.2
v -0.4 0.4 0.6
v -0.4 0.4 0.4
v -0.4 0.4 0.3
v -0.4 0.4 0.2
v -0.4 0.4 0
v -0.4 0.4 -0.1
v -0.4 0.4 -0.2
v -0.4 0.4 -0.3
v -0.4 0.4 -0.4
v -0.4 0.4 -0.6
v -0.4 0.4 -0.7
v -0.4 0.5 0.4
v -0.4 0.5 0.3
v -0.4 0.5 0.2
v -0.4 0.5 0
v -0.4 0.5 -0.1
v -0.4 0.5 -0.2
v -0.4 0.5 -0.3
v -0.4 0.5 -0.4
v -0.4 0.6 0.4
v -0.4 0.6 0.3
v -0.4 0.6 0.2
v -0.4 0.6 0
v -0.4 0.6 -0.1
v -0.4 0.6 -0.2
v -0.4 0.6 -0.3
v -0.4 0.6 -0.4
v -0.4 0.6 -0.5
v -0.4 0.6 -0.6
v -0.4 0.7 0.3
v -0.4 0.7 -0.5
v -0.3 0.1 0.7
v -0.3 0.1 0.6
v -0.3 0.1 -0.7
v -0.3 0.1 -0.8
v -0.3 0.2 0.7
v -0.3 0.2 0.6
v -0.3 0.2 -0.7
v -0.3 0.2 -0.8
v -0.3 0.4 0.7
v -0.3 0.4 0.6
v -0.3 0.4 0.5
v -0.3 0.4 0.4
v -0.3 0.4 -0.6
v -0.3 0.4 -0.7
v -0.3 0.4 -0.8
v -0.3 0.5 0.5
v -0.3 0.5 0.4
v -0.3 0.6 0.5
v -0.3 0.6 0.4
v -0.3 0.6 0.3
v -0.3 0.6 -0.5
v -0.3 0.6 -0.6
v -0.3 0.6 -0.7
v -0.3 0.7 0.4
v -0.3 0.7 0.3
v -0.3 0.7 -0.5
v -0.3 0.7 -0.6
v 0.3 0 0.4
v 0.3 0 0.2
v 0.3 0 -0.3
v 0.3 0 -0.5
v 0.3 0.1 0.4
v 0.3 0.1 0.2
v 0.3 0.1 -0.3
v 0.3 0.1 -0.5
v -0.3 0 0.4
v -0.3 0 0.2
v -0.3 0 -0.3
v -0.3 0 -0.5
v -0.3 0.1 0.4
v -0.3 0.1 0.2
v -0.3 0.1 -0.3
v -0.3 0.1 -0.5
v 0.3 0.1 0.7
v 0.3 0.1 0.6
v 0.3 0.1 -0.7
v 0.3 0.1 -0.8
v 0.3 0.2 0.7
v 0.3 0.2 0.6
v 0.3 0.2 -0.7
v 0.3 0.2 -0.8
v 0.3 0.4 0.7
v 0.3 0.4 0.6
v 0.3 0.4 0.5
v 0.3 0.4 0.4
v 0.3 0.4 -0.6
v 0.3 0.4 -0.7
v 0.3 0.4 -0.8
v 0.3 0.5 0.4
v 0.3 0.6 0.5
v 0.3 0.6 0.4
v 0.3 0.6 0.3
v 0.3 0.6 -0.5
v 0.3 0.6 -0.6
v 0.3 0.6 -0.7
v 0.3 0.7 0.4
v 0.3 0.7 0.3
v 0.3 0.7 -0.5
v 0.3 0.7 -0.6
v 0.4 0 0.4
v 0.4 0 0.2
v 0.4 0 -0.3
v 0.4 0 -0.5
v 0.4 0.1 0.6
v 0.4 0.1 0.4
v 0.4 0.1 0.2
v 0.4 0.1 -0.3
v 0.4 0.1 -0.5
v 0.4 0.1 -0.7
v 0.4 0.2 0.6
v 0.4 0.2 0.4
v 0.4 0.2 0.2
v 0.4 0.2 -0.3
v 0.4 0.2 -0.5
v 0.4 0.2 -0.7
v 0.4 0.3 0.4
v 0.4 0.3 0.3
v 0.4 0.3 0
v 0.4 0.3 -0.2
v 0.4 0.4 0.6
v 0.4 0.4 0.4
v 0.4 0.4 0.3
v 0.4 0.4 0.2
v 0.4 0.4 0
v 0.4 0.4 -0.1
v 0.4 0.4 -0.2
v 0.4 0.4 -0.3
v 0.4 0.4 -0.4
v 0.4 0.4 -0.6
v 0.4 0.4 -0.7
v 0.4 0.5 0.4
v 0.4 0.5 0.3
v 0.4 0.5 0.2
v 0.4 0.5 0
v 0.4 0.5 -0.1
v 0.4 0.5 -0.2
v 0.4 0.5 -0.3
v 0.4 0.5 -0.4
v 0.4 0.6 0.4
v 0.4 0.6 0.3
v 0.4 0.6 0.2
v 0.4 0.6 0
v 0.4 0.6 -0.1
v 0.4 0.6 -0.2
v 0.4 0.6 -0.3
v 0.4 0.6 -0.4
v 0.4 0.6 -0.5
v 0.4 0.6 -0.6
v 0.4 0.7 0.3
v 0.4 0.7 -0.5
v 0.5 0.3 0.4
v 0.5 0.3 0.3
v 0.5 0.4 0.4
v 0.5 0.4 0.3
v -0.3 0.1 0.7
v -0.3 0.2 0.7
v -0.3 0.4 0.7
v -0.2 0.2 0.7
v -0.2 0.3 0.7
v -0.1 0.2 0.7
v -0.1 0.3 0.7
v 0.2 0.2 0.7
v 0.2 0.3 0.7
v 0.3 0.1 0.7
v 0.3 0.2 0.7
v 0.3 0.4 0.7
v -0.4 0.1 0.6
v -0.4 0.2 0.6
v -0.4 0.4 0.6
v -0.3 0.1 0.6
v -0.3 0.2 0.6
v -0.3 0.4 0.6
v 0.3 0.1 0.6
v 0.3 0.2 0.6
v 0.3 0.4 0.6
v 0.4 0.1 0.6
v 0.4 0.2 0.6
v 0.4 0.4 0.6
v -0.3 0.4 0.5
v -0.3 0.5 0.5
v -0.3 0.6 0.5
v -0.2 0.4 0.5
v -0.2 0.5 0.5
v -0.2 0.6 0.5
v -0.1 0.5 0.5
v -0.1 0.6 0.5
v 0 0.4 0.5
v 0 0.5 0.5
v 0.1 0.4 0.5
v 0.1 0.5 0.5
v 0.1 0.6 0.5
v 0.2 0.5 0.5
v 0.2 0.6 0.5
v 0.3 0.4 0.5
v 0.3 0.6 0.5
v -0.5 0.3 0.4
v -0.5 0.4 0.4
v -0.4 0 0.4
v -0.4 0.1 0.4
v -0.4 0.3 0.4
v -0.4 0.4 0.4
v -0.4 0.5 0.4
v -0.4 0.6 0.4
v -0.3 0 0.4
v -0.3 0.1 0.4
v -0.3 0.4 0.4
v -0.3 0.5 0.4
v -0.3 0.6 0.4
v -0.3 0.7 0.4
v -0.2 0.6 0.4
v -0.1 0.6 0.4
v 0.1 0.6 0.4
v 0.2 0.6 0.4
v 0.3 0 0.4
v 0.3 0.1 0.4
v 0.3 0.4 0.4
v 0.3 0.5 0.4
v 0.3 0.6 0.4
v 0.3 0.7 0.4
v 0.4 0 0.4
v 0.4 0.1 0.4
v 0.4 0.3 0.4
v 0.4 0.4 0.4
v 0.4 0.5 0.4
v 0.4 0.6 0.4
v 0.5 0.3 0.4
v 0.5 0.4 0.4
v -0.4 0.6 0.3
v -0.4 0.7 0.3
v -0.3 0.6 0.3
v -0.3 0.7 0.3
v 0.3 0.6 0.3
v 0.3 0.7 0.3
v 0.4 0.6 0.3
v 0.4 0.7 0.3
v -0.4 0 -0.3
v -0.4 0.1 -0.3
v -0.3 0 -0.3
v -0.3 0.1 -0.3
v 0.3 0 -0.3
v 0.3 0.1 -0.3
v 0.4 0 -0.3
v 0.4 0.1 -0.3
v -0.5 0.3 0.3
v -0.5 0.4 0.3
v -0.4 0.3 0.3
v -0.4 0.4 0.3
v 0.4 0.3 0.3
v 0.4 0.4 0.3
v 0.5 0.3 0.3
v 0.5 0.4 0.3
v -0.4 0 0.2
v -0.4 0.1 0.2
v -0.3 0 0.2
v -0.3 0.1 0.2
v 0.3 0 0.2
v 0.3 0.1 0.2
v 0.4 0 0.2
v 0.4 0.1 0.2
v -0.4 0 -0.5
v -0.4 0.1 -0.5
v -0.4 0.6 -0.5
v -0.4 0.7 -0.5
v -0.3 0 -0.5
v -0.3 0.1 -0.5
v -0.3 0.6 -0.5
v -0.3 0.7 -0.5
v 0.3 0 -0.5
v 0.3 0.1 -0.5
v 0.3 0.6 -0.5
v 0.3 0.7 -0.5
v 0.4 0 -0.5
v 0.4 0.1 -0.5
v 0.4 0.6 -0.5
v 0.4 0.7 -0.5
v -0.4 0.4 -0.6
v -0.4 0.6 -0.6
v -0.3 0.4 -0.6
v -0.3 0.6 -0.6
v -0.3 0.7 -0.6
v -0.2 0.6 -0.6
v -0.1 0.6 -0.6
v 0 0.6 -0.6
v 0.1 0.6 -0.6
v 0.2 0.6 -0.6
v 0.3 0.4 -0.6
v 0.3 0.6 -0.6
v 0.3 0.7 -0.6
v 0.4 0.4 -0.6
v 0.4 0.6 -0.6
v -0.4 0.1 -0.7
v -0.4 0.2 -0.7
v -0.4 0.4 -0.7
v -0.3 0.1 -0.7
v -0.3 0.2 -0.7
v -0.3 0.4 -0.7
v -0.3 0.6 -0.7
v -0.2 0.4 -0.7
v -0.2 0.5 -0.7
v -0.2 0.6 -0.7
v -0.1 0.4 -0.7
v -0.1 0.5 -0.7
v -0.1 0.6 -0.7
v 0 0.4 -0.7
v 0 0.5 -0.7
v 0 0.6 -0.7
v 0.1 0.4 -0.7
v 0.1 0.5 -0.7
v 0.1 0.6 -0.7
v 0.2 0.4 -0.7
v 0.2 0.5 -0.7
v 0.2 0.6 -0.7
v 0.3 0.1 -0.7
v 0.3 0.2 -0.7
v 0.3 0.4 -0.7
v 0.3 0.6 -0.7
v 0.4 0.1 -0.7
v 0.4 0.2 -0.7
v 0.4 0.4 -0.7
v -0.3 0.1 -0.8
v -0.3 0.2 -0.8
v -0.3 0.4 -0.8
v -0.2 0.1 -0.8
v -0.2 0.2 -0.8
v 0.1 0.1 -0.8
v 0.1 0.2 -0.8
v 0.2 0.1 -0.8
v 0.2 0.2 -0.8
v 0.3 0.1 -0.8
v 0.3 0.2 -0.8
v 0.3 0.4 -0.8
v -0.4 0 0.4
v -0.3 0 0.4
v 0.3 0 0.4
v 0.4 0 0.4
v -0.4 0 0.2
v -0.3 0 0.2
v 0.3 0 0.2
v 0.4 0 0.2
v -0.4 0 -0.3
v -0.3 0 -0.3
v 0.3 0 -0.3
v 0.4 0 -0.3
v -0.4 0 -0.5
v -0.3 0 -0.5
v 0.3 0 -0.5
v 0.4 0 -0.5
v -0.3 0.1 0.7
v 0.3 0.1 0.7
v -0.4 0.1 0.6
v -0.3 0.1 0.6
v 0.3 0.1 0.6
v 0.4 0.1 0.6
v -0.4 0.1 0.4
v -0.3 0.1 0.4
v 0.3 0.1 0.4
v 0.4 0.1 0.4
v -0.4 0.1 0.2
v -0.3 0.1 0.2
v 0.3 0.1 0.2
v 0.4 0.1 0.2
v -0.4 0.1 -0.3
v -0.3 0.1 -0.3
v 0.3 0.1 -0.3
v 0.4 0.1 -0.3
v -0.4 0.1 -0.5
v -0.3 0.1 -0.5
v 0.3 0.1 -0.5
v 0.4 0.1 -0.5
v -0.4 0.1 -0.6
v -0.3 0.1 -0.6
v -0.4 0.1 -0.7
v -0.3 0.1 -0.7
v -0.2 0.1 -0.7
v 0.1 0.1 -0.7
v 0.2 0.1 -0.7
v 0.3 0.1 -0.7
v 0.4 0.1 -0.7
v -0.3 0.1 -0.8
v -0.2 0.1 -0.8
v 0.1 0.1 -0.8
v 0.2 0.1 -0.8
v 0.3 0.1 -0.8
v -0.5 0.3 0.4
v -0.4 0.3 0.4
v 0.4 0.3 0.4
v 0.5 0.3 0.4
v -0.5 0.3 0.3
v -0.4 0.3 0.3
v 0.4 0.3 0.3
v 0.5 0.3 0.3
v -0.3 0.4 0.7
v 0.3 0.4 0.7
v -0.4 0.4 0.6
v -0.3 0.4 0.6
v 0.3 0.4 0.6
v 0.4 0.4 0.6
v -0.3 0.4 0.5
v -0.2 0.4 0.5
v 0 0.4 0.5
v 0.1 0.4 0.5
v 0.3 0.4 0.5
v -0.5 0.4 0.4
v -0.4 0.4 0.4
v -0.3 0.4 0.4
v 0.3 0.4 0.4
v 0.4 0.4 0.4
v 0.5 0.4 0.4
v -0.5 0.4 0.3
v -0.4 0.4 0.3
v 0.4 0.4 0.3
v 0.5 0.4 0.3
v -0.4 0.4 -0.6
v -0.3 0.4 -0.6
v 0.3 0.4 -0.6
v 0.4 0.4 -0.6
v -0.4 0.4 -0.7
v -0.3 0.4 -0.7
v -0.2 0.4 -0.7
v -0.1 0.4 -0.7
v 0 0.4 -0.7
v 0.1 0.4 -0.7
v 0.2 0.4 -0.7
v 0.3 0.4 -0.7
v 0.4 0.4 -0.7
v -0.3 0.4 -0.8
v 0.3 0.4 -0.8
v -0.3 0.6 0.5
v -0.2 0.6 0.5
v -0.1 0.6 0.5
v 0.1 0.6 0.5
v 0.2 0.6 0.5
v 0.3 0.6 0.5
v -0.4 0.6 0.4
v -0.3 0.6 0.4
v -0.2 0.6 0.4
v -0.1 0.6 0.4
v 0.1 0.6 0.4
v 0.2 0.6 0.4
v 0.3 0.6 0.4
v 0.4 0.6 0.4
v -0.4 0.6 0.3
v -0.3 0.6 0.3
v 0.3 0.6 0.3
v 0.4 0.6 0.3
v -0.4 0.6 -0.5
v -0.3 0.6 -0.5
v 0.3 0.6 -0.5
v 0.4 0.6 -0.5
v -0.4 0.6 -0.6
v -0.3 0.6 -0.6
v -0.2 0.6 -0.6
v -0.1 0.6 -0.6
v 0 0.6 -0.6
v 0.1 0.6 -0.6
v 0.2 0.6 -0.6
v 0.3 0.6 -0.6
v 0.4 0.6 -0.6
v -0.3 0.6 -0.7
v -0.2 0.6 -0.7
v -0.1 0.6 -0.7
v 0 0.6 -0.7
v 0.1 0.6 -0.7
v 0.2 0.6 -0.7
v 0.3 0.6 -0.7
v -0.3 0.7 0.4
v 0.3 0.7 0.4
v -0.4 0.7 0.3
v -0.3 0.7 0.3
v 0.3 0.7 0.3
v 0.4 0.7 0.3
v -0.4 0.7 -0.5
v -0.3 0.7 -0.5
v 0.3 0.7 -0.5
v 0.4 0.7 -0.5
v -0.3 0.7 -0.6
v 0.3 0.7 -0.6

# faces
f 3/2/1 2/2/1 1/2/1
f 4/2/1 2/2/1 3/2/1
f 10/9/1 6/9/1 5/9/1
f 11/9/1 6/9/1 10/9/1
f 12/9/1 8/9/1 7/9/1
f 13/9/1 8/9/1 12/9/1
f 16/7/1 10/7/1 9/7/1
f 17/9/1 11/9/1 10/9/1
f 17/7/1 10/7/1 16/7/1
f 18/7/1 12/7/1 11/7/1
f 18/9/1 11/9/1 17/9/1
f 19/9/1 13/9/1 12/9/1
f 19/7/1 12/7/1 18/7/1
f 20/7/1 14/7/1 13/7/1
f 20/9/1 13/9/1 19/9/1
f 21/8/1 15/8/1 14/8/1
f 21/7/1 14/7/1 20/7/1
f 22/8/1 15/8/1 21/8/1
f 23/2/1 20/2/1 19/2/1
f 23/2/1 17/2/1 16/2/1
f 23/2/1 22/2/1 21/2/1
f 23/2/1 21/2/1 20/2/1
f 23/2/1 19/2/1 18/2/1
f 23/2/1 18/2/1 17/2/1
f 24/2/1 22/2/1 23/2/1
f 25/2/1 22/2/1 24/2/1
f 26/2/1 22/2/1 25/2/1
f 27/2/1 23/2/1 16/2/1
f 28/2/1 23/2/1 27/2/1
f 29/2/1 25/2/1 24/2/1
f 30/2/1 25/2/1 29/2/1
f 31/3/1 26/3/1 25/3/1
f 31/2/1 25/2/1 30/2/1
f 32/3/1 26/3/1 31/3/1
f 33/2/1 22/2/1 26/2/1
f 33/3/1 26/3/1 32/3/1
f 34/2/1 22/2/1 33/2/1
f 35/2/1 22/2/1 34/2/1
f 36/2/1 22/2/1 35/2/1
f 37/2/1 22/2/1 36/2/1
f 38/4/1 29/4/1 28/4/1
f 39/5/1 30/5/1 29/5/1
f 39/4/1 29/4/1 38/4/1
f 40/2/1 31/2/1 30/2/1
f 40/5/1 30/5/1 39/5/1
f 41/4/1 32/4/1 31/4/1
f 41/2/1 31/2/1 40/2/1
f 42/5/1 33/5/1 32/5/1
f 42/4/1 32/4/1 41/4/1
f 43/4/1 34/4/1 33/4/1
f 43/5/1 33/5/1 42/5/1
f 44/5/1 35/5/1 34/5/1
f 44/4/1 34/4/1 43/4/1
f 45/2/1 36/2/1 35/2/1
f 45/5/1 35/5/1 44/5/1
f 46/5/1 39/5/1 38/5/1
f 47/4/1 40/4/1 39/4/1
f 47/5/1 39/5/1 46/5/1
f 48/2/1 41/2/1 40/2/1
f 48/4/1 40/4/1 47/4/1
f 49/5/1 42/5/1 41/5/1
f 49/2/1 41/2/1 48/2/1
f 50/4/1 43/4/1 42/4/1
f 50/5/1 42/5/1 49/5/1
f 51/5/1 44/5/1 43/5/1
f 51/4/1 43/4/1 50/4/1
f 52/4/1 45/4/1 44/4/1
f 52/5/1 44/5/1 51/5/1
f 53/2/1 36/2/1 45/2/1
f 53/4/1 45/4/1 52/4/1
f 54/2/1 36/2/1 53/2/1
f 55/2/1 36/2/1 54/2/1
f 56/2/1 50/2/1 49/2/1
f 56/2/1 52/2/1 51/2/1
f 56/2/1 54/2/1 53/2/1
f 56/2/1 53/2/1 52/2/1
f 56/2/1 51/2/1 50/2/1
f 56/2/1 49/2/1 48/2/1
f 56/2/1 48/2/1 47/2/1
f 57/2/1 54/2/1 56/2/1
f 62/7/1 59/7/1 58/7/1
f 63/7/1 59/7/1 62/7/1
f 64/7/1 61/7/1 60/7/1
f 65/7/1 61/7/1 64/7/1
f 66/2/1 63/2/1 62/2/1
f 67/2/1 63/2/1 66/2/1
f 71/2/1 65/2/1 64/2/1
f 72/2/1 65/2/1 71/2/1
f 73/5/1 69/5/1 68/5/1
f 74/5/1 69/5/1 73/5/1
f 75/4/1 74/4/1 73/4/1
f 76/4/1 74/4/1 75/4/1
f 79/2/1 71/2/1 70/2/1
f 80/2/1 71/2/1 79/2/1
f 81/2/1 77/2/1 76/2/1
f 82/2/1 77/2/1 81/2/1
f 83/2/1 79/2/1 78/2/1
f 84/2/1 79/2/1 83/2/1
f 89/9/1 86/9/1 85/9/1
f 90/9/1 86/9/1 89/9/1
f 91/9/1 88/9/1 87/9/1
f 92/9/1 88/9/1 91/9/1
f 93/9/2 94/9/2 97/9/2
f 97/9/2 94/9/2 98/9/2
f 95/9/2 96/9/2 99/9/2
f 99/9/2 96/9/2 100/9/2
f 101/7/2 102/7/2 105/7/2
f 105/7/2 102/7/2 106/7/2
f 103/7/2 104/7/2 107/7/2
f 107/7/2 104/7/2 108/7/2
f 105/2/2 106/2/2 109/2/2
f 109/2/2 106/2/2 110/2/2
f 107/2/2 108/2/2 114/2/2
f 114/2/2 108/2/2 115/2/2
f 111/4/2 112/4/2 116/4/2
f 111/4/2 116/4/2 117/4/2
f 117/4/2 116/4/2 118/4/2
f 113/2/2 114/2/2 121/2/2
f 121/2/2 114/2/2 122/2/2
f 118/2/2 119/2/2 123/2/2
f 123/2/2 119/2/2 124/2/2
f 120/2/2 121/2/2 125/2/2
f 125/2/2 121/2/2 126/2/2
f 127/9/2 128/9/2 132/9/2
f 132/9/2 128/9/2 133/9/2
f 129/9/2 130/9/2 134/9/2
f 134/9/2 130/9/2 135/9/2
f 131/7/2 132/7/2 137/7/2
f 132/9/2 133/9/2 138/9/2
f 137/7/2 132/7/2 138/7/2
f 133/7/2 134/7/2 139/7/2
f 138/9/2 133/9/2 139/9/2
f 134/9/2 135/9/2 140/9/2
f 139/7/2 134/7/2 140/7/2
f 135/7/2 136/7/2 141/7/2
f 140/9/2 135/9/2 141/9/2
f 141/7/2 136/7/2 142/7/2
f 139/2/2 140/2/2 143/2/2
f 137/2/2 138/2/2 143/2/2
f 141/2/2 142/2/2 143/2/2
f 140/2/2 141/2/2 143/2/2
f 138/2/2 139/2/2 143/2/2
f 143/2/2 142/2/2 144/2/2
f 144/2/2 142/2/2 145/2/2
f 145/2/2 142/2/2 146/2/2
f 137/2/2 143/2/2 147/2/2
f 147/2/2 143/2/2 148/2/2
f 144/2/2 145/2/2 149/2/2
f 149/2/2 145/2/2 150/2/2
f 145/3/2 146/3/2 151/3/2
f 150/2/2 145/2/2 151/2/2
f 151/3/2 146/3/2 152/3/2
f 146/2/2 142/2/2 153/2/2
f 152/3/2 146/3/2 153/3/2
f 153/2/2 142/2/2 154/2/2
f 154/2/2 142/2/2 155/2/2
f 155/2/2 142/2/2 156/2/2
f 156/2/2 142/2/2 157/2/2
f 148/5/2 149/5/2 158/5/2
f 149/4/2 150/4/2 159/4/2
f 158/5/2 149/5/2 159/5/2
f 150/2/2 151/2/2 160/2/2
f 159/4/2 150/4/2 160/4/2
f 151/5/2 152/5/2 161/5/2
f 160/2/2 151/2/2 161/2/2
f 152/4/2 153/4/2 162/4/2
f 161/5/2 152/5/2 162/5/2
f 153/5/2 154/5/2 163/5/2
f 162/4/2 153/4/2 163/4/2
f 154/4/2 155/4/2 164/4/2
f 163/5/2 154/5/2 164/5/2
f 155/2/2 156/2/2 165/2/2
f 164/4/2 155/4/2 165/4/2
f 158/4/2 159/4/2 166/4/2
f 159/5/2 160/5/2 167/5/2
f 166/4/2 159/4/2 167/4/2
f 160/2/2 161/2/2 168/2/2
f 167/5/2 160/5/2 168/5/2
f 161/4/2 162/4/2 169/4/2
f 168/2/2 161/2/2 169/2/2
f 162/5/2 163/5/2 170/5/2
f 169/4/2 162/4/2 170/4/2
f 163/4/2 164/4/2 171/4/2
f 170/5/2 163/5/2 171/5/2
f 164/5/2 165/5/2 172/5/2
f 171/4/2 164/4/2 172/4/2
f 165/2/2 156/2/2 173/2/2
f 172/5/2 165/5/2 173/5/2
f 173/2/2 156/2/2 174/2/2
f 174/2/2 156/2/2 175/2/2
f 169/2/2 170/2/2 176/2/2
f 171/2/2 172/2/2 176/2/2
f 173/2/2 174/2/2 176/2/2
f 172/2/2 173/2/2 176/2/2
f 170/2/2 171/2/2 176/2/2
f 168/2/2 169/2/2 176/2/2
f 167/2/2 168/2/2 176/2/2
f 176/2/2 174/2/2 177/2/2
f 178/2/2 179/2/2 180/2/2
f 180/2/2 179/2/2 181/2/2
f 185/7/3 183/7/3 182/7/3
f 185/2/3 184/2/3 183/2/3
f 186/2/3 184/2/3 185/2/3
f 187/7/3 185/7/3 182/7/3
f 187/6/3 186/6/3 185/6/3
f 188/2/3 184/2/3 186/2/3
f 188/6/3 186/6/3 187/6/3
f 189/7/3 187/7/3 182/7/3
f 189/1/3 188/1/3 187/1/3
f 190/2/3 184/2/3 188/2/3
f 190/1/3 188/1/3 189/1/3
f 191/7/3 189/7/3 182/7/3
f 192/2/3 190/2/3 189/2/3
f 192/7/3 189/7/3 191/7/3
f 193/2/3 184/2/3 190/2/3
f 193/2/3 190/2/3 192/2/3
f 197/7/3 195/7/3 194/7/3
f 198/2/3 196/2/3 195/2/3
f 198/7/3 195/7/3 197/7/3
f 199/2/3 196/2/3 198/2/3
f 203/7/3 201/7/3 200/7/3
f 204/2/3 202/2/3 201/2/3
f 204/7/3 201/7/3 203/7/3
f 205/2/3 202/2/3 204/2/3
f 209/5/3 207/5/3 206/5/3
f 210/4/3 208/4/3 207/4/3
f 210/5/3 207/5/3 209/5/3
f 211/4/3 208/4/3 210/4/3
f 212/4/3 210/4/3 209/4/3
f 212/5/3 211/5/3 210/5/3
f 213/5/3 211/5/3 212/5/3
f 214/4/3 212/4/3 209/4/3
f 214/4/3 213/4/3 212/4/3
f 215/4/3 213/4/3 214/4/3
f 216/5/3 215/5/3 214/5/3
f 217/4/3 213/4/3 215/4/3
f 217/5/3 215/5/3 216/5/3
f 218/4/3 213/4/3 217/4/3
f 219/4/3 217/4/3 216/4/3
f 219/5/3 218/5/3 217/5/3
f 220/5/3 218/5/3 219/5/3
f 221/4/3 219/4/3 216/4/3
f 221/4/3 220/4/3 219/4/3
f 222/4/3 220/4/3 221/4/3
f 227/2/3 224/2/3 223/2/3
f 228/2/3 224/2/3 227/2/3
f 231/9/3 226/9/3 225/9/3
f 232/9/3 226/9/3 231/9/3
f 233/4/3 229/4/3 228/4/3
f 234/5/3 230/5/3 229/5/3
f 234/4/3 229/4/3 233/4/3
f 235/5/3 230/5/3 234/5/3
f 237/2/3 236/2/3 235/2/3
f 238/2/3 236/2/3 237/2/3
f 239/2/3 236/2/3 238/2/3
f 240/2/3 236/2/3 239/2/3
f 245/2/3 236/2/3 240/2/3
f 246/2/3 236/2/3 245/2/3
f 247/9/3 242/9/3 241/9/3
f 248/9/3 242/9/3 247/9/3
f 250/5/3 244/5/3 243/5/3
f 251/4/3 245/4/3 244/4/3
f 251/5/3 244/5/3 250/5/3
f 252/4/3 245/4/3 251/4/3
f 253/2/3 250/2/3 249/2/3
f 254/2/3 250/2/3 253/2/3
f 257/2/3 256/2/3 255/2/3
f 258/2/3 256/2/3 257/2/3
f 261/2/3 260/2/3 259/2/3
f 262/2/3 260/2/3 261/2/3
f 265/9/3 264/9/3 263/9/3
f 266/9/3 264/9/3 265/9/3
f 269/9/3 268/9/3 267/9/3
f 270/9/3 268/9/3 269/9/3
f 271/2/4 272/2/4 273/2/4
f 273/2/4 272/2/4 274/2/4
f 275/2/4 276/2/4 277/2/4
f 277/2/4 276/2/4 278/2/4
f 279/9/4 280/9/4 281/9/4
f 281/9/4 280/9/4 282/9/4
f 283/9/4 284/9/4 285/9/4
f 285/9/4 284/9/4 286/9/4
f 287/9/4 288/9/4 291/9/4
f 291/9/4 288/9/4 292/9/4
f 289/2/4 290/2/4 293/2/4
f 293/2/4 290/2/4 294/2/4
f 295/9/4 296/9/4 299/9/4
f 299/9/4 296/9/4 300/9/4
f 297/2/4 298/2/4 301/2/4
f 301/2/4 298/2/4 302/2/4
f 303/2/4 304/2/4 305/2/4
f 305/2/4 304/2/4 306/2/4
f 306/2/4 307/2/4 308/2/4
f 308/2/4 307/2/4 309/2/4
f 309/2/4 307/2/4 310/2/4
f 310/2/4 307/2/4 311/2/4
f 311/2/4 307/2/4 312/2/4
f 312/2/4 307/2/4 314/2/4
f 314/2/4 307/2/4 315/2/4
f 313/2/4 314/2/4 316/2/4
f 316/2/4 314/2/4 317/2/4
f 318/8/4 319/8/4 321/8/4
f 319/2/4 320/2/4 322/2/4
f 321/8/4 319/8/4 322/8/4
f 322/2/4 320/2/4 323/2/4
f 323/2/4 324/2/4 325/2/4
f 325/2/4 324/2/4 326/2/4
f 326/2/4 324/2/4 327/2/4
f 325/4/4 326/4/4 328/4/4
f 326/5/4 327/5/4 329/5/4
f 328/4/4 326/4/4 329/4/4
f 329/5/4 327/5/4 330/5/4
f 328/5/4 329/5/4 331/5/4
f 329/4/4 330/4/4 332/4/4
f 331/5/4 329/5/4 332/5/4
f 332/4/4 330/4/4 333/4/4
f 331/4/4 332/4/4 334/4/4
f 332/5/4 333/5/4 335/5/4
f 334/4/4 332/4/4 335/4/4
f 335/5/4 333/5/4 336/5/4
f 334/5/4 335/5/4 337/5/4
f 335/4/4 336/4/4 338/4/4
f 337/5/4 335/5/4 338/5/4
f 338/4/4 336/4/4 339/4/4
f 337/2/4 338/2/4 342/2/4
f 338/2/4 339/2/4 342/2/4
f 342/2/4 339/2/4 343/2/4
f 340/7/4 341/7/4 344/7/4
f 341/2/4 342/2/4 345/2/4
f 344/7/4 341/7/4 345/7/4
f 345/2/4 342/2/4 346/2/4
f 347/7/4 348/7/4 350/7/4
f 348/2/4 349/2/4 351/2/4
f 350/7/4 348/7/4 351/7/4
f 350/1/4 351/1/4 352/1/4
f 351/2/4 349/2/4 353/2/4
f 352/1/4 351/1/4 353/1/4
f 352/6/4 353/6/4 354/6/4
f 353/2/4 349/2/4 355/2/4
f 354/6/4 353/6/4 355/6/4
f 354/7/4 355/7/4 356/7/4
f 355/2/4 349/2/4 357/2/4
f 356/7/4 355/7/4 357/7/4
f 357/2/4 349/2/4 358/2/4
f 363/9/5 360/9/5 359/9/5
f 364/9/5 360/9/5 363/9/5
f 365/9/5 362/9/5 361/9/5
f 366/9/5 362/9/5 365/9/5
f 371/9/5 368/9/5 367/9/5
f 372/9/5 368/9/5 371/9/5
f 373/9/5 370/9/5 369/9/5
f 374/9/5 370/9/5 373/9/5
f 378/7/5 376/7/5 375/7/5
f 379/7/5 376/7/5 378/7/5
f 381/7/5 378/7/5 377/7/5
f 381/7/5 380/7/5 379/7/5
f 381/7/5 379/7/5 378/7/5
f 382/7/5 380/7/5 381/7/5
f 383/7/5 380/7/5 382/7/5
f 384/7/5 380/7/5 383/7/5
f 386/7/5 383/7/5 382/7/5
f 387/7/5 383/7/5 386/7/5
f 389/7/5 386/7/5 385/7/5
f 389/7/5 388/7/5 387/7/5
f 389/7/5 387/7/5 386/7/5
f 390/7/5 388/7/5 389/7/5
f 391/7/5 388/7/5 390/7/5
f 392/7/5 388/7/5 391/7/5
f 394/7/5 391/7/5 390/7/5
f 395/7/5 391/7/5 394/7/5
f 397/7/5 394/7/5 393/7/5
f 397/7/5 396/7/5 395/7/5
f 397/7/5 395/7/5 394/7/5
f 398/7/5 396/7/5 397/7/5
f 399/8/5 398/8/5 397/8/5
f 400/7/5 396/7/5 398/7/5
f 400/8/5 398/8/5 399/8/5
f 401/7/5 396/7/5 400/7/5
f 402/7/5 396/7/5 401/7/5
f 403/7/5 396/7/5 402/7/5
f 404/7/5 396/7/5 403/7/5
f 405/7/5 396/7/5 404/7/5
f 406/7/5 401/7/5 400/7/5
f 407/1/5 402/1/5 401/1/5
f 407/7/5 401/7/5 406/7/5
f 408/6/5 403/6/5 402/6/5
f 408/1/5 402/1/5 407/1/5
f 409/7/5 404/7/5 403/7/5
f 409/6/5 403/6/5 408/6/5
f 410/7/5 404/7/5 409/7/5
f 415/2/5 412/2/5 411/2/5
f 416/2/5 412/2/5 415/2/5
f 417/2/5 414/2/5 413/2/5
f 418/2/5 414/2/5 417/2/5
f 419/2/6 420/2/6 422/2/6
f 422/2/6 420/2/6 423/2/6
f 421/2/6 422/2/6 425/2/6
f 423/2/6 424/2/6 425/2/6
f 422/2/6 423/2/6 425/2/6
f 425/2/6 424/2/6 426/2/6
f 426/2/6 424/2/6 427/2/6
f 427/2/6 424/2/6 428/2/6
f 428/2/6 424/2/6 429/2/6
f 421/2/6 425/2/6 431/2/6
f 431/2/6 425/2/6 432/2/6
f 429/2/6 424/2/6 433/2/6
f 433/2/6 424/2/6 434/2/6
f 430/2/6 431/2/6 436/2/6
f 436/2/6 431/2/6 437/2/6
f 434/2/6 435/2/6 438/2/6
f 438/2/6 435/2/6 439/2/6
f 440/2/6 441/2/6 444/2/6
f 444/2/6 441/2/6 445/2/6
f 442/2/6 443/2/6 451/2/6
f 451/2/6 443/2/6 452/2/6
f 449/2/6 450/2/6 453/2/6
f 450/2/6 451/2/6 453/2/6
f 445/2/6 446/2/6 453/2/6
f 448/2/6 449/2/6 453/2/6
f 447/2/6 448/2/6 453/2/6
f 446/2/6 447/2/6 453/2/6
f 453/2/6 451/2/6 454/2/6
f 455/4/6 456/4/6 462/4/6
f 456/5/6 457/5/6 463/5/6
f 462/4/6 456/4/6 463/4/6
f 457/4/6 458/4/6 464/4/6
f 463/5/6 457/5/6 464/5/6
f 458/5/6 459/5/6 465/5/6
f 464/4/6 458/4/6 465/4/6
f 459/4/6 460/4/6 466/4/6
f 465/5/6 459/5/6 466/5/6
f 466/4/6 460/4/6 467/4/6
f 461/5/6 462/5/6 469/5/6
f 469/5/6 462/5/6 470/5/6
f 467/4/6 468/4/6 471/4/6
f 471/4/6 468/4/6 472/4/6
f 473/2/6 474/2/6 477/2/6
f 477/2/6 474/2/6 478/2/6
f 475/2/6 476/2/6 484/2/6
f 484/2/6 476/2/6 485/2/6
f 478/2/6 479/2/6 486/2/6
f 479/5/6 480/5/6 487/5/6
f 486/2/6 479/2/6 487/2/6
f 480/4/6 481/4/6 488/4/6
f 487/5/6 480/5/6 488/5/6
f 481/5/6 482/5/6 489/5/6
f 488/4/6 481/4/6 489/4/6
f 482/4/6 483/4/6 490/4/6
f 489/5/6 482/5/6 490/5/6
f 483/2/6 484/2/6 491/2/6
f 490/4/6 483/4/6 491/4/6
f 491/2/6 484/2/6 492/2/6
f 493/2/6 494/2/6 496/2/6
f 496/2/6 494/2/6 497/2/6
f 495/2/6 496/2/6 499/2/6
f 497/2/6 498/2/6 499/2/6
f 496/2/6 497/2/6 499/2/6
f 499/2/6 498/2/6 500/2/6
f 500/2/6 498/2/6 501/2/6
f 501/2/6 498/2/6 502/2/6
f 500/2/6 501/2/6 503/2/6
f 503/2/6 501/2/6 504/2/6
