# MagicaVoxel @ Ephtracy

# group
o 

# material
mtllib AssTree.mtl
usemtl palette

# normals
vn -1 0 0
vn 1 0 0
vn 0 0 1
vn 0 0 -1
vn 0 -1 0
vn 0 1 0

# texcoords
vt 0.341797 0.5
vt 0.365234 0.5
vt 0.560547 0.5
vt 0.583984 0.5

# verts
v -0.6 1.2 0.4
v -0.6 1.2 -0.4
v -0.6 1.3 0.6
v -0.6 1.3 0.4
v -0.6 1.3 -0.4
v -0.6 1.3 -0.6
v -0.6 1.4 0.6
v -0.6 1.4 -0.6
v -0.6 1.6 0.6
v -0.6 1.6 -0.6
v -0.6 1.8 0.6
v -0.6 1.8 -0.6
v -0.6 2 0.6
v -0.6 2 -0.6
v -0.6 2.2 0.6
v -0.6 2.2 -0.6
v -0.6 2.4 0.6
v -0.6 2.4 -0.6
v -0.6 2.6 0.6
v -0.6 2.6 -0.6
v -0.6 2.8 0.6
v -0.6 2.8 -0.6
v -0.6 3 0.6
v -0.6 3 -0.6
v -0.6 3.1 0.6
v -0.6 3.1 0.4
v -0.6 3.1 -0.4
v -0.6 3.1 -0.6
v -0.6 3.2 0.4
v -0.6 3.2 -0.4
v -0.4 1.2 0.6
v -0.4 1.2 0.4
v -0.4 1.2 -0.4
v -0.4 1.2 -0.6
v -0.4 1.3 0.6
v -0.4 1.3 0.4
v -0.4 1.3 -0.4
v -0.4 1.3 -0.6
v -0.4 3.1 0.6
v -0.4 3.1 0.4
v -0.4 3.1 -0.4
v -0.4 3.1 -0.6
v -0.4 3.2 0.6
v -0.4 3.2 0.4
v -0.4 3.2 -0.4
v -0.4 3.2 -0.6
v -0.2 0 0.2
v -0.2 0 -0.2
v -0.2 0.2 0.2
v -0.2 0.2 -0.2
v -0.2 0.4 0.2
v -0.2 0.4 -0.2
v -0.2 0.6 0.2
v -0.2 0.6 -0.2
v -0.2 0.8 0.2
v -0.2 0.8 -0.2
v -0.2 1 0.2
v -0.2 1 -0.2
v -0.2 1.2 0.2
v -0.2 1.2 -0.2
v 0.2 0 0.2
v 0.2 0 -0.2
v 0.2 0.2 0.2
v 0.2 0.2 -0.2
v 0.2 0.4 0.2
v 0.2 0.4 -0.2
v 0.2 0.6 0.2
v 0.2 0.6 -0.2
v 0.2 0.8 0.2
v 0.2 0.8 -0.2
v 0.2 1 0.2
v 0.2 1 -0.2
v 0.2 1.2 0.2
v 0.2 1.2 -0.2
v 0.4 1.2 0.6
v 0.4 1.2 0.4
v 0.4 1.2 -0.4
v 0.4 1.2 -0.6
v 0.4 1.3 0.6
v 0.4 1.3 0.4
v 0.4 1.3 -0.4
v 0.4 1.3 -0.6
v 0.4 3.1 0.6
v 0.4 3.1 0.4
v 0.4 3.1 -0.4
v 0.4 3.1 -0.6
v 0.4 3.2 0.6
v 0.4 3.2 0.4
v 0.4 3.2 -0.4
v 0.4 3.2 -0.6
v 0.6 1.2 0.4
v 0.6 1.2 -0.4
v 0.6 1.3 0.6
v 0.6 1.3 0.4
v 0.6 1.3 -0.4
v 0.6 1.3 -0.6
v 0.6 1.4 0.6
v 0.6 1.4 -0.6
v 0.6 1.6 0.6
v 0.6 1.6 -0.6
v 0.6 1.8 0.6
v 0.6 1.8 -0.6
v 0.6 2 0.6
v 0.6 2 -0.6
v 0.6 2.2 0.6
v 0.6 2.2 -0.6
v 0.6 2.4 0.6
v 0.6 2.4 -0.6
v 0.6 2.6 0.6
v 0.6 2.6 -0.6
v 0.6 2.8 0.6
v 0.6 2.8 -0.6
v 0.6 3 0.6
v 0.6 3 -0.6
v 0.6 3.1 0.6
v 0.6 3.1 0.4
v 0.6 3.1 -0.4
v 0.6 3.1 -0.6
v 0.6 3.2 0.4
v 0.6 3.2 -0.4
v -0.6 1.3 0.6
v -0.6 1.4 0.6
v -0.6 1.6 0.6
v -0.6 1.8 0.6
v -0.6 2 0.6
v -0.6 2.2 0.6
v -0.6 2.4 0.6
v -0.6 2.6 0.6
v -0.6 2.8 0.6
v -0.6 3 0.6
v -0.6 3.1 0.6
v -0.4 1.2 0.6
v -0.4 1.3 0.6
v -0.4 3.1 0.6
v -0.4 3.2 0.6
v 0.4 1.2 0.6
v 0.4 1.3 0.6
v 0.4 3.1 0.6
v 0.4 3.2 0.6
v 0.6 1.3 0.6
v 0.6 1.4 0.6
v 0.6 1.6 0.6
v 0.6 1.8 0.6
v 0.6 2 0.6
v 0.6 2.2 0.6
v 0.6 2.4 0.6
v 0.6 2.6 0.6
v 0.6 2.8 0.6
v 0.6 3 0.6
v 0.6 3.1 0.6
v -0.6 1.2 0.4
v -0.6 1.3 0.4
v -0.6 3.1 0.4
v -0.6 3.2 0.4
v -0.4 1.2 0.4
v -0.4 1.3 0.4
v -0.4 3.1 0.4
v -0.4 3.2 0.4
v 0.4 1.2 0.4
v 0.4 1.3 0.4
v 0.4 3.1 0.4
v 0.4 3.2 0.4
v 0.6 1.2 0.4
v 0.6 1.3 0.4
v 0.6 3.1 0.4
v 0.6 3.2 0.4
v -0.2 0 0.2
v -0.2 0.2 0.2
v -0.2 0.4 0.2
v -0.2 0.6 0.2
v -0.2 0.8 0.2
v -0.2 1 0.2
v -0.2 1.2 0.2
v 0.2 0 0.2
v 0.2 0.2 0.2
v 0.2 0.4 0.2
v 0.2 0.6 0.2
v 0.2 0.8 0.2
v 0.2 1 0.2
v 0.2 1.2 0.2
v -0.2 0 -0.2
v -0.2 0.2 -0.2
v -0.2 0.4 -0.2
v -0.2 0.6 -0.2
v -0.2 0.8 -0.2
v -0.2 1 -0.2
v -0.2 1.2 -0.2
v 0.2 0 -0.2
v 0.2 0.2 -0.2
v 0.2 0.4 -0.2
v 0.2 0.6 -0.2
v 0.2 0.8 -0.2
v 0.2 1 -0.2
v 0.2 1.2 -0.2
v -0.6 1.2 -0.4
v -0.6 1.3 -0.4
v -0.6 3.1 -0.4
v -0.6 3.2 -0.4
v -0.4 1.2 -0.4
v -0.4 1.3 -0.4
v -0.4 3.1 -0.4
v -0.4 3.2 -0.4
v 0.4 1.2 -0.4
v 0.4 1.3 -0.4
v 0.4 3.1 -0.4
v 0.4 3.2 -0.4
v 0.6 1.2 -0.4
v 0.6 1.3 -0.4
v 0.6 3.1 -0.4
v 0.6 3.2 -0.4
v -0.6 1.3 -0.6
v -0.6 1.4 -0.6
v -0.6 1.6 -0.6
v -0.6 1.8 -0.6
v -0.6 2 -0.6
v -0.6 2.2 -0.6
v -0.6 2.4 -0.6
v -0.6 2.6 -0.6
v -0.6 2.8 -0.6
v -0.6 3 -0.6
v -0.6 3.1 -0.6
v -0.4 1.2 -0.6
v -0.4 1.3 -0.6
v -0.4 3.1 -0.6
v -0.4 3.2 -0.6
v 0.4 1.2 -0.6
v 0.4 1.3 -0.6
v 0.4 3.1 -0.6
v 0.4 3.2 -0.6
v 0.6 1.3 -0.6
v 0.6 1.4 -0.6
v 0.6 1.6 -0.6
v 0.6 1.8 -0.6
v 0.6 2 -0.6
v 0.6 2.2 -0.6
v 0.6 2.4 -0.6
v 0.6 2.6 -0.6
v 0.6 2.8 -0.6
v 0.6 3 -0.6
v 0.6 3.1 -0.6
v -0.2 0 0.2
v 0.2 0 0.2
v -0.2 0 -0.2
v 0.2 0 -0.2
v -0.4 1.2 0.6
v 0.4 1.2 0.6
v -0.6 1.2 0.4
v -0.4 1.2 0.4
v 0.4 1.2 0.4
v 0.6 1.2 0.4
v -0.2 1.2 0.2
v 0.2 1.2 0.2
v -0.2 1.2 -0.2
v 0.2 1.2 -0.2
v -0.6 1.2 -0.4
v -0.4 1.2 -0.4
v 0.4 1.2 -0.4
v 0.6 1.2 -0.4
v -0.4 1.2 -0.6
v 0.4 1.2 -0.6
v -0.6 1.3 0.6
v -0.4 1.3 0.6
v 0.4 1.3 0.6
v 0.6 1.3 0.6
v -0.6 1.3 0.4
v -0.4 1.3 0.4
v 0.4 1.3 0.4
v 0.6 1.3 0.4
v -0.6 1.3 -0.4
v -0.4 1.3 -0.4
v 0.4 1.3 -0.4
v 0.6 1.3 -0.4
v -0.6 1.3 -0.6
v -0.4 1.3 -0.6
v 0.4 1.3 -0.6
v 0.6 1.3 -0.6
v -0.6 3.1 0.6
v -0.4 3.1 0.6
v 0.4 3.1 0.6
v 0.6 3.1 0.6
v -0.6 3.1 0.4
v -0.4 3.1 0.4
v 0.4 3.1 0.4
v 0.6 3.1 0.4
v -0.6 3.1 -0.4
v -0.4 3.1 -0.4
v 0.4 3.1 -0.4
v 0.6 3.1 -0.4
v -0.6 3.1 -0.6
v -0.4 3.1 -0.6
v 0.4 3.1 -0.6
v 0.6 3.1 -0.6
v -0.4 3.2 0.6
v 0.4 3.2 0.6
v -0.6 3.2 0.4
v -0.4 3.2 0.4
v 0.4 3.2 0.4
v 0.6 3.2 0.4
v -0.6 3.2 -0.4
v -0.4 3.2 -0.4
v 0.4 3.2 -0.4
v 0.6 3.2 -0.4
v -0.4 3.2 -0.6
v 0.4 3.2 -0.6

# faces
f 4/3/1 2/3/1 1/3/1
f 5/3/1 2/3/1 4/3/1
f 7/3/1 4/3/1 3/3/1
f 7/3/1 6/3/1 5/3/1
f 7/3/1 5/3/1 4/3/1
f 8/3/1 6/3/1 7/3/1
f 9/4/1 8/4/1 7/4/1
f 10/4/1 8/4/1 9/4/1
f 11/3/1 10/3/1 9/3/1
f 12/3/1 10/3/1 11/3/1
f 13/4/1 12/4/1 11/4/1
f 14/4/1 12/4/1 13/4/1
f 15/3/1 14/3/1 13/3/1
f 16/3/1 14/3/1 15/3/1
f 17/4/1 16/4/1 15/4/1
f 18/4/1 16/4/1 17/4/1
f 19/3/1 18/3/1 17/3/1
f 20/3/1 18/3/1 19/3/1
f 21/4/1 20/4/1 19/4/1
f 22/4/1 20/4/1 21/4/1
f 23/3/1 22/3/1 21/3/1
f 24/3/1 22/3/1 23/3/1
f 25/4/1 24/4/1 23/4/1
f 26/4/1 24/4/1 25/4/1
f 27/4/1 24/4/1 26/4/1
f 28/4/1 24/4/1 27/4/1
f 29/4/1 27/4/1 26/4/1
f 30/4/1 27/4/1 29/4/1
f 35/3/1 32/3/1 31/3/1
f 36/3/1 32/3/1 35/3/1
f 37/3/1 34/3/1 33/3/1
f 38/3/1 34/3/1 37/3/1
f 43/4/1 40/4/1 39/4/1
f 44/4/1 40/4/1 43/4/1
f 45/4/1 42/4/1 41/4/1
f 46/4/1 42/4/1 45/4/1
f 49/1/1 48/1/1 47/1/1
f 50/1/1 48/1/1 49/1/1
f 51/2/1 50/2/1 49/2/1
f 52/2/1 50/2/1 51/2/1
f 53/1/1 52/1/1 51/1/1
f 54/1/1 52/1/1 53/1/1
f 55/2/1 54/2/1 53/2/1
f 56/2/1 54/2/1 55/2/1
f 57/1/1 56/1/1 55/1/1
f 58/1/1 56/1/1 57/1/1
f 59/2/1 58/2/1 57/2/1
f 60/2/1 58/2/1 59/2/1
f 61/1/2 62/1/2 63/1/2
f 63/1/2 62/1/2 64/1/2
f 63/2/2 64/2/2 65/2/2
f 65/2/2 64/2/2 66/2/2
f 65/1/2 66/1/2 67/1/2
f 67/1/2 66/1/2 68/1/2
f 67/2/2 68/2/2 69/2/2
f 69/2/2 68/2/2 70/2/2
f 69/1/2 70/1/2 71/1/2
f 71/1/2 70/1/2 72/1/2
f 71/2/2 72/2/2 73/2/2
f 73/2/2 72/2/2 74/2/2
f 75/3/2 76/3/2 79/3/2
f 79/3/2 76/3/2 80/3/2
f 77/3/2 78/3/2 81/3/2
f 81/3/2 78/3/2 82/3/2
f 83/4/2 84/4/2 87/4/2
f 87/4/2 84/4/2 88/4/2
f 85/4/2 86/4/2 89/4/2
f 89/4/2 86/4/2 90/4/2
f 91/3/2 92/3/2 94/3/2
f 94/3/2 92/3/2 95/3/2
f 93/3/2 94/3/2 97/3/2
f 95/3/2 96/3/2 97/3/2
f 94/3/2 95/3/2 97/3/2
f 97/3/2 96/3/2 98/3/2
f 97/4/2 98/4/2 99/4/2
f 99/4/2 98/4/2 100/4/2
f 99/3/2 100/3/2 101/3/2
f 101/3/2 100/3/2 102/3/2
f 101/4/2 102/4/2 103/4/2
f 103/4/2 102/4/2 104/4/2
f 103/3/2 104/3/2 105/3/2
f 105/3/2 104/3/2 106/3/2
f 105/4/2 106/4/2 107/4/2
f 107/4/2 106/4/2 108/4/2
f 107/3/2 108/3/2 109/3/2
f 109/3/2 108/3/2 110/3/2
f 109/4/2 110/4/2 111/4/2
f 111/4/2 110/4/2 112/4/2
f 111/3/2 112/3/2 113/3/2
f 113/3/2 112/3/2 114/3/2
f 113/4/2 114/4/2 115/4/2
f 115/4/2 114/4/2 116/4/2
f 116/4/2 114/4/2 117/4/2
f 117/4/2 114/4/2 118/4/2
f 116/4/2 117/4/2 119/4/2
f 119/4/2 117/4/2 120/4/2
f 133/3/3 122/3/3 121/3/3
f 134/4/3 131/4/3 130/4/3
f 136/3/3 133/3/3 132/3/3
f 137/3/3 122/3/3 133/3/3
f 137/3/3 133/3/3 136/3/3
f 138/4/3 135/4/3 134/4/3
f 138/4/3 134/4/3 130/4/3
f 139/4/3 135/4/3 138/4/3
f 140/3/3 122/3/3 137/3/3
f 141/4/3 123/4/3 122/4/3
f 141/3/3 122/3/3 140/3/3
f 142/3/3 124/3/3 123/3/3
f 142/4/3 123/4/3 141/4/3
f 143/4/3 125/4/3 124/4/3
f 143/3/3 124/3/3 142/3/3
f 144/3/3 126/3/3 125/3/3
f 144/4/3 125/4/3 143/4/3
f 145/4/3 127/4/3 126/4/3
f 145/3/3 126/3/3 144/3/3
f 146/3/3 128/3/3 127/3/3
f 146/4/3 127/4/3 145/4/3
f 147/4/3 129/4/3 128/4/3
f 147/3/3 128/3/3 146/3/3
f 148/3/3 130/3/3 129/3/3
f 148/4/3 129/4/3 147/4/3
f 149/4/3 138/4/3 130/4/3
f 149/3/3 130/3/3 148/3/3
f 150/4/3 138/4/3 149/4/3
f 155/3/3 152/3/3 151/3/3
f 156/3/3 152/3/3 155/3/3
f 157/4/3 154/4/3 153/4/3
f 158/4/3 154/4/3 157/4/3
f 163/3/3 160/3/3 159/3/3
f 164/3/3 160/3/3 163/3/3
f 165/4/3 162/4/3 161/4/3
f 166/4/3 162/4/3 165/4/3
f 174/1/3 168/1/3 167/1/3
f 175/2/3 169/2/3 168/2/3
f 175/1/3 168/1/3 174/1/3
f 176/1/3 170/1/3 169/1/3
f 176/2/3 169/2/3 175/2/3
f 177/2/3 171/2/3 170/2/3
f 177/1/3 170/1/3 176/1/3
f 178/1/3 172/1/3 171/1/3
f 178/2/3 171/2/3 177/2/3
f 179/2/3 173/2/3 172/2/3
f 179/1/3 172/1/3 178/1/3
f 180/2/3 173/2/3 179/2/3
f 181/1/4 182/1/4 188/1/4
f 182/2/4 183/2/4 189/2/4
f 188/1/4 182/1/4 189/1/4
f 183/1/4 184/1/4 190/1/4
f 189/2/4 183/2/4 190/2/4
f 184/2/4 185/2/4 191/2/4
f 190/1/4 184/1/4 191/1/4
f 185/1/4 186/1/4 192/1/4
f 191/2/4 185/2/4 192/2/4
f 186/2/4 187/2/4 193/2/4
f 192/1/4 186/1/4 193/1/4
f 193/2/4 187/2/4 194/2/4
f 195/3/4 196/3/4 199/3/4
f 199/3/4 196/3/4 200/3/4
f 197/4/4 198/4/4 201/4/4
f 201/4/4 198/4/4 202/4/4
f 203/3/4 204/3/4 207/3/4
f 207/3/4 204/3/4 208/3/4
f 205/4/4 206/4/4 209/4/4
f 209/4/4 206/4/4 210/4/4
f 211/3/4 212/3/4 223/3/4
f 220/4/4 221/4/4 224/4/4
f 222/3/4 223/3/4 226/3/4
f 223/3/4 212/3/4 227/3/4
f 226/3/4 223/3/4 227/3/4
f 224/4/4 225/4/4 228/4/4
f 220/4/4 224/4/4 228/4/4
f 228/4/4 225/4/4 229/4/4
f 227/3/4 212/3/4 230/3/4
f 212/4/4 213/4/4 231/4/4
f 230/3/4 212/3/4 231/3/4
f 213/3/4 214/3/4 232/3/4
f 231/4/4 213/4/4 232/4/4
f 214/4/4 215/4/4 233/4/4
f 232/3/4 214/3/4 233/3/4
f 215/3/4 216/3/4 234/3/4
f 233/4/4 215/4/4 234/4/4
f 216/4/4 217/4/4 235/4/4
f 234/3/4 216/3/4 235/3/4
f 217/3/4 218/3/4 236/3/4
f 235/4/4 217/4/4 236/4/4
f 218/4/4 219/4/4 237/4/4
f 236/3/4 218/3/4 237/3/4
f 219/3/4 220/3/4 238/3/4
f 237/4/4 219/4/4 238/4/4
f 220/4/4 228/4/4 239/4/4
f 238/3/4 220/3/4 239/3/4
f 239/4/4 228/4/4 240/4/4
f 243/1/5 242/1/5 241/1/5
f 244/1/5 242/1/5 243/1/5
f 248/3/5 246/3/5 245/3/5
f 249/3/5 246/3/5 248/3/5
f 251/3/5 248/3/5 247/3/5
f 251/3/5 250/3/5 249/3/5
f 251/3/5 249/3/5 248/3/5
f 252/3/5 250/3/5 251/3/5
f 253/3/5 251/3/5 247/3/5
f 254/3/5 250/3/5 252/3/5
f 255/3/5 253/3/5 247/3/5
f 255/3/5 254/3/5 253/3/5
f 256/3/5 254/3/5 255/3/5
f 257/3/5 250/3/5 254/3/5
f 257/3/5 254/3/5 256/3/5
f 258/3/5 250/3/5 257/3/5
f 259/3/5 257/3/5 256/3/5
f 260/3/5 257/3/5 259/3/5
f 265/3/5 262/3/5 261/3/5
f 266/3/5 262/3/5 265/3/5
f 267/3/5 264/3/5 263/3/5
f 268/3/5 264/3/5 267/3/5
f 273/3/5 270/3/5 269/3/5
f 274/3/5 270/3/5 273/3/5
f 275/3/5 272/3/5 271/3/5
f 276/3/5 272/3/5 275/3/5
f 277/4/6 278/4/6 281/4/6
f 281/4/6 278/4/6 282/4/6
f 279/4/6 280/4/6 283/4/6
f 283/4/6 280/4/6 284/4/6
f 285/4/6 286/4/6 289/4/6
f 289/4/6 286/4/6 290/4/6
f 287/4/6 288/4/6 291/4/6
f 291/4/6 288/4/6 292/4/6
f 293/4/6 294/4/6 296/4/6
f 296/4/6 294/4/6 297/4/6
f 295/4/6 296/4/6 299/4/6
f 297/4/6 298/4/6 299/4/6
f 296/4/6 297/4/6 299/4/6
f 299/4/6 298/4/6 300/4/6
f 300/4/6 298/4/6 301/4/6
f 301/4/6 298/4/6 302/4/6
f 300/4/6 301/4/6 303/4/6
f 303/4/6 301/4/6 304/4/6
